<?xml version="1.0" standalone="no"?>
<!DOCTYPE svg PUBLIC "-//W3C//DTD SVG 20010904//EN"
 "http://www.w3.org/TR/2001/REC-SVG-20010904/DTD/svg10.dtd">
<svg version="1.0" xmlns="http://www.w3.org/2000/svg"
 width="165.000000pt" height="150.000000pt" viewBox="0 0 165.000000 150.000000"
 preserveAspectRatio="xMidYMid meet">

<g transform="translate(0.000000,150.000000) scale(0.100000,-0.100000)"
fill="#000000" stroke="none">
<path d="M1342 1338 c-25 -32 -163 -312 -192 -393 -42 -115 -56 -143 -90 -180
-33 -35 -111 -245 -117 -317 -4 -40 -2 -48 17 -58 31 -17 48 4 92 110 71 169
92 218 163 380 101 232 145 317 155 299 10 -18 58 -300 66 -389 5 -47 3 -69
-5 -74 -7 -4 -51 -16 -99 -26 -117 -24 -220 -72 -228 -105 -9 -36 7 -50 82
-70 59 -16 76 -26 151 -97 46 -44 100 -86 121 -95 35 -15 37 -14 59 12 19 22
23 38 23 98 0 40 3 102 6 138 l7 67 38 6 c29 5 39 11 39 25 0 20 -19 31 -55
31 -35 0 -43 19 -55 116 -10 89 -13 106 -45 284 -16 92 -34 142 -55 155 -5 3
-10 21 -10 39 0 49 -41 76 -68 44z m108 -818 c0 -68 -4 -100 -11 -100 -7 0
-42 24 -78 54 -36 29 -79 61 -94 71 -17 11 -24 22 -19 27 15 15 125 47 165 47
l37 1 0 -100z"/>
<path d="M858 1283 c-8 -10 -29 -61 -47 -113 -41 -120 -166 -364 -231 -452
-55 -75 -81 -85 -104 -40 -28 56 -67 189 -82 282 -17 106 -40 163 -83 204 -44
42 -55 31 -69 -69 -12 -93 -61 -246 -149 -469 -66 -165 -76 -218 -45 -235 27
-14 32 -7 105 149 52 110 137 342 137 374 0 8 4 17 9 20 5 4 17 -26 26 -66 55
-247 148 -359 238 -288 34 27 105 136 153 235 l39 80 6 -140 c7 -154 11 -184
41 -295 22 -80 64 -155 88 -155 22 0 23 32 5 116 -38 179 -47 254 -41 369 6
135 28 264 62 368 28 87 29 105 8 126 -20 21 -47 20 -66 -1z"/>
</g>
</svg>
